{
	"asset":{
		"generator":"Khronos glTF Blender I/O v3.5.30",
		"version":"2.0"
	},
	"scene":0,
	"scenes":[
		{
			"name":"Scene",
			"nodes":[
				0,
				1,
				2,
				3,
				4,
				5,
				6,
				7,
				8,
				9,
				10,
				11,
				12,
				13,
				14,
				15,
				16,
				17,
				18,
				19,
				20,
				21,
				22,
				23,
				24,
				25,
				26,
				27,
				28,
				29,
				30,
				31,
				32,
				33,
				34,
				35,
				36,
				37
			]
		}
	],
	"nodes":[
		{
			"mesh":0,
			"name":"floor_tile_large"
		},
		{
			"mesh":1,
			"name":"wall",
			"translation":[
				0,
				0,
				1.2804266214370728
			]
		},
		{
			"mesh":2,
			"name":"ceiling_tile",
			"translation":[
				0,
				4.112617492675781,
				0
			]
		},
		{
			"mesh":0,
			"name":"floor_tile_large.001",
			"translation":[
				4,
				0,
				0
			]
		},
		{
			"mesh":2,
			"name":"ceiling_tile.001",
			"translation":[
				4,
				4.112617492675781,
				0
			]
		},
		{
			"mesh":3,
			"name":"floor_tile_large.002",
			"translation":[
				0,
				0,
				-4
			]
		},
		{
			"mesh":4,
			"name":"ceiling_tile.002",
			"translation":[
				0,
				4.112617492675781,
				-4
			]
		},
		{
			"mesh":3,
			"name":"floor_tile_large.003",
			"translation":[
				4,
				0,
				-4
			]
		},
		{
			"mesh":4,
			"name":"ceiling_tile.003",
			"translation":[
				4,
				4.112617492675781,
				-4
			]
		},
		{
			"mesh":3,
			"name":"floor_tile_large.004",
			"translation":[
				0,
				0,
				-8
			]
		},
		{
			"mesh":4,
			"name":"ceiling_tile.004",
			"translation":[
				0,
				4.112617492675781,
				-8
			]
		},
		{
			"mesh":3,
			"name":"floor_tile_large.005",
			"translation":[
				4,
				0,
				-8
			]
		},
		{
			"mesh":4,
			"name":"ceiling_tile.005",
			"translation":[
				4,
				4.112617492675781,
				-8
			]
		},
		{
			"mesh":0,
			"name":"floor_tile_large.006",
			"translation":[
				8,
				0,
				0
			]
		},
		{
			"mesh":2,
			"name":"ceiling_tile.006",
			"translation":[
				8,
				4.112617492675781,
				0
			]
		},
		{
			"mesh":0,
			"name":"floor_tile_large.007",
			"translation":[
				12,
				0,
				0
			]
		},
		{
			"mesh":2,
			"name":"ceiling_tile.007",
			"translation":[
				12,
				4.112617492675781,
				0
			]
		},
		{
			"mesh":3,
			"name":"floor_tile_large.008",
			"translation":[
				8,
				0,
				-4
			]
		},
		{
			"mesh":4,
			"name":"ceiling_tile.008",
			"translation":[
				8,
				4.112617492675781,
				-4
			]
		},
		{
			"mesh":3,
			"name":"floor_tile_large.009",
			"translation":[
				12,
				0,
				-4
			]
		},
		{
			"mesh":4,
			"name":"ceiling_tile.009",
			"translation":[
				12,
				4.112617492675781,
				-4
			]
		},
		{
			"mesh":3,
			"name":"floor_tile_large.010",
			"translation":[
				8,
				0,
				-8
			]
		},
		{
			"mesh":4,
			"name":"ceiling_tile.010",
			"translation":[
				8,
				4.112617492675781,
				-8
			]
		},
		{
			"mesh":3,
			"name":"floor_tile_large.011",
			"translation":[
				12,
				0,
				-8
			]
		},
		{
			"mesh":4,
			"name":"ceiling_tile.011",
			"translation":[
				12,
				4.112617492675781,
				-8
			]
		},
		{
			"mesh":1,
			"name":"wall.001",
			"translation":[
				4,
				0,
				1.2804266214370728
			]
		},
		{
			"mesh":1,
			"name":"wall.002",
			"translation":[
				8,
				0,
				1.2804266214370728
			]
		},
		{
			"mesh":1,
			"name":"wall.003",
			"translation":[
				12,
				0,
				1.2804266214370728
			]
		},
		{
			"mesh":1,
			"name":"wall.004",
			"translation":[
				0,
				0,
				-9.637273788452148
			]
		},
		{
			"mesh":1,
			"name":"wall.005",
			"translation":[
				4,
				0,
				-9.637273788452148
			]
		},
		{
			"mesh":1,
			"name":"wall.006",
			"translation":[
				8,
				0,
				-9.637273788452148
			]
		},
		{
			"mesh":1,
			"name":"wall.007",
			"translation":[
				12,
				0,
				-9.637273788452148
			]
		},
		{
			"mesh":1,
			"name":"wall.008",
			"rotation":[
				0,
				0.7071068286895752,
				0,
				0.7071067094802856
			],
			"translation":[
				-1.5838227272033691,
				0,
				-0.23699992895126343
			]
		},
		{
			"mesh":1,
			"name":"wall.009",
			"rotation":[
				0,
				0.7071068286895752,
				0,
				0.7071067094802856
			],
			"translation":[
				-1.5838232040405273,
				0,
				-4.236999988555908
			]
		},
		{
			"mesh":1,
			"name":"wall.010",
			"rotation":[
				0,
				0.7071068286895752,
				0,
				0.7071067094802856
			],
			"translation":[
				-1.5838232040405273,
				0,
				-8.23699951171875
			]
		},
		{
			"mesh":1,
			"name":"wall.011",
			"rotation":[
				0,
				0.7071068286895752,
				0,
				0.7071067094802856
			],
			"translation":[
				13.883440017700195,
				0,
				-0.23699992895126343
			]
		},
		{
			"mesh":1,
			"name":"wall.012",
			"rotation":[
				0,
				0.7071068286895752,
				0,
				0.7071067094802856
			],
			"translation":[
				13.883439064025879,
				0,
				-4.236999988555908
			]
		},
		{
			"mesh":1,
			"name":"wall.013",
			"rotation":[
				0,
				0.7071068286895752,
				0,
				0.7071067094802856
			],
			"translation":[
				13.883439064025879,
				0,
				-8.23699951171875
			]
		}
	],
	"materials":[
		{
			"name":"texture",
			"pbrMetallicRoughness":{
				"baseColorTexture":{
					"index":0
				},
				"metallicFactor":0,
				"roughnessFactor":0.44999998807907104
			}
		},
		{
			"name":"texture.001",
			"pbrMetallicRoughness":{
				"baseColorTexture":{
					"index":1
				},
				"metallicFactor":0,
				"roughnessFactor":0.44999998807907104
			}
		},
		{
			"name":"texture.002",
			"pbrMetallicRoughness":{
				"baseColorTexture":{
					"index":2
				},
				"metallicFactor":0,
				"roughnessFactor":0.44999998807907104
			}
		}
	],
	"meshes":[
		{
			"name":"floor_tile_large",
			"primitives":[
				{
					"attributes":{
						"POSITION":0,
						"TEXCOORD_0":1,
						"NORMAL":2
					},
					"indices":3,
					"material":0
				}
			]
		},
		{
			"name":"wall",
			"primitives":[
				{
					"attributes":{
						"POSITION":4,
						"TEXCOORD_0":5,
						"NORMAL":6
					},
					"indices":7,
					"material":1
				}
			]
		},
		{
			"name":"ceiling_tile",
			"primitives":[
				{
					"attributes":{
						"POSITION":8,
						"TEXCOORD_0":9,
						"NORMAL":10
					},
					"indices":11,
					"material":2
				}
			]
		},
		{
			"name":"floor_tile_large.001",
			"primitives":[
				{
					"attributes":{
						"POSITION":12,
						"TEXCOORD_0":13,
						"NORMAL":14
					},
					"indices":3,
					"material":0
				}
			]
		},
		{
			"name":"ceiling_tile.001",
			"primitives":[
				{
					"attributes":{
						"POSITION":15,
						"TEXCOORD_0":16,
						"NORMAL":17
					},
					"indices":11,
					"material":2
				}
			]
		}
	],
	"textures":[
		{
			"sampler":0,
			"source":0
		},
		{
			"sampler":0,
			"source":0
		},
		{
			"sampler":0,
			"source":0
		}
	],
	"images":[
		{
			"mimeType":"image/png",
			"name":"dungeon_texture",
			"uri":"textures/dungeon_texture.png"
		}
	],
	"accessors":[
		{
			"bufferView":0,
			"componentType":5126,
			"count":275,
			"max":[
				2,
				0.05000000819563866,
				2
			],
			"min":[
				-2,
				-0.10000000894069672,
				-2
			],
			"type":"VEC3"
		},
		{
			"bufferView":1,
			"componentType":5126,
			"count":275,
			"type":"VEC2"
		},
		{
			"bufferView":2,
			"componentType":5126,
			"count":275,
			"type":"VEC3"
		},
		{
			"bufferView":3,
			"componentType":5123,
			"count":564,
			"type":"SCALAR"
		},
		{
			"bufferView":4,
			"componentType":5126,
			"count":1034,
			"max":[
				2,
				4,
				0.5
			],
			"min":[
				-2,
				0,
				-0.5
			],
			"type":"VEC3"
		},
		{
			"bufferView":5,
			"componentType":5126,
			"count":1034,
			"type":"VEC2"
		},
		{
			"bufferView":6,
			"componentType":5126,
			"count":1034,
			"type":"VEC3"
		},
		{
			"bufferView":7,
			"componentType":5123,
			"count":1482,
			"type":"SCALAR"
		},
		{
			"bufferView":8,
			"componentType":5126,
			"count":101,
			"max":[
				2,
				0.10000120103359222,
				2
			],
			"min":[
				-2,
				-0.2500011920928955,
				-2
			],
			"type":"VEC3"
		},
		{
			"bufferView":9,
			"componentType":5126,
			"count":101,
			"type":"VEC2"
		},
		{
			"bufferView":10,
			"componentType":5126,
			"count":101,
			"type":"VEC3"
		},
		{
			"bufferView":11,
			"componentType":5123,
			"count":180,
			"type":"SCALAR"
		},
		{
			"bufferView":12,
			"componentType":5126,
			"count":275,
			"max":[
				2,
				0.05000000819563866,
				2
			],
			"min":[
				-2,
				-0.10000000894069672,
				-2
			],
			"type":"VEC3"
		},
		{
			"bufferView":13,
			"componentType":5126,
			"count":275,
			"type":"VEC2"
		},
		{
			"bufferView":14,
			"componentType":5126,
			"count":275,
			"type":"VEC3"
		},
		{
			"bufferView":15,
			"componentType":5126,
			"count":101,
			"max":[
				2,
				0.10000120103359222,
				2
			],
			"min":[
				-2,
				-0.2500011920928955,
				-2
			],
			"type":"VEC3"
		},
		{
			"bufferView":16,
			"componentType":5126,
			"count":101,
			"type":"VEC2"
		},
		{
			"bufferView":17,
			"componentType":5126,
			"count":101,
			"type":"VEC3"
		}
	],
	"bufferViews":[
		{
			"buffer":0,
			"byteLength":3300,
			"byteOffset":0,
			"target":34962
		},
		{
			"buffer":0,
			"byteLength":2200,
			"byteOffset":3300,
			"target":34962
		},
		{
			"buffer":0,
			"byteLength":3300,
			"byteOffset":5500,
			"target":34962
		},
		{
			"buffer":0,
			"byteLength":1128,
			"byteOffset":8800,
			"target":34963
		},
		{
			"buffer":0,
			"byteLength":12408,
			"byteOffset":9928,
			"target":34962
		},
		{
			"buffer":0,
			"byteLength":8272,
			"byteOffset":22336,
			"target":34962
		},
		{
			"buffer":0,
			"byteLength":12408,
			"byteOffset":30608,
			"target":34962
		},
		{
			"buffer":0,
			"byteLength":2964,
			"byteOffset":43016,
			"target":34963
		},
		{
			"buffer":0,
			"byteLength":1212,
			"byteOffset":45980,
			"target":34962
		},
		{
			"buffer":0,
			"byteLength":808,
			"byteOffset":47192,
			"target":34962
		},
		{
			"buffer":0,
			"byteLength":1212,
			"byteOffset":48000,
			"target":34962
		},
		{
			"buffer":0,
			"byteLength":360,
			"byteOffset":49212,
			"target":34963
		},
		{
			"buffer":0,
			"byteLength":3300,
			"byteOffset":49572,
			"target":34962
		},
		{
			"buffer":0,
			"byteLength":2200,
			"byteOffset":52872,
			"target":34962
		},
		{
			"buffer":0,
			"byteLength":3300,
			"byteOffset":55072,
			"target":34962
		},
		{
			"buffer":0,
			"byteLength":1212,
			"byteOffset":58372,
			"target":34962
		},
		{
			"buffer":0,
			"byteLength":808,
			"byteOffset":59584,
			"target":34962
		},
		{
			"buffer":0,
			"byteLength":1212,
			"byteOffset":60392,
			"target":34962
		}
	],
	"samplers":[
		{
			"magFilter":9729,
			"minFilter":9987
		}
	],
	"buffers":[
		{
			"byteLength":61604,
			"uri":"dungeonmodular.bin"
		}
	]
}
