{
	"asset":{
		"generator":"Khronos glTF Blender I/O v3.5.30",
		"version":"2.0"
	},
	"extensionsUsed":[
		"KHR_materials_specular",
		"KHR_materials_ior"
	],
	"scene":0,
	"scenes":[
		{
			"name":"Scene",
			"nodes":[
				0
			]
		}
	],
	"nodes":[
		{
			"mesh":0,
			"name":"Dragon",
			"rotation":[
				0.70710688829422,
				0,
				0,
				0.7071066498756409
			],
			"scale":[
				0.25,
				0.25,
				0.25
			],
			"translation":[
				0,
				0.0016652941703796387,
				0
			]
		}
	],
	"materials":[
		{
			"extensions":{
				"KHR_materials_specular":{
					"specularColorFactor":[
						1.136531473883232,
						1.136531473883232,
						1.136531473883232
					]
				},
				"KHR_materials_ior":{
					"ior":1.4500000476837158
				}
			},
			"name":"orangeMetallic",
			"pbrMetallicRoughness":{
				"baseColorFactor":[
					0.467202365398407,
					0.10702098906040192,
					0.018773207440972328,
					1
				],
				"metallicFactor":0.9792746305465698,
				"roughnessFactor":0.484455943107605
			}
		}
	],
	"meshes":[
		{
			"name":"Dragon",
			"primitives":[
				{
					"attributes":{
						"POSITION":0,
						"TEXCOORD_0":1,
						"NORMAL":2
					},
					"indices":3,
					"material":0
				}
			]
		}
	],
	"accessors":[
		{
			"bufferView":0,
			"componentType":5126,
			"count":76809,
			"max":[
				7.0467000007629395,
				3.1512999534606934,
				0
			],
			"min":[
				-7.0467000007629395,
				-3.1512999534606934,
				-9.939900398254395
			],
			"type":"VEC3"
		},
		{
			"bufferView":1,
			"componentType":5126,
			"count":76809,
			"type":"VEC2"
		},
		{
			"bufferView":2,
			"componentType":5126,
			"count":76809,
			"type":"VEC3"
		},
		{
			"bufferView":3,
			"componentType":5125,
			"count":273648,
			"type":"SCALAR"
		}
	],
	"bufferViews":[
		{
			"buffer":0,
			"byteLength":921708,
			"byteOffset":0,
			"target":34962
		},
		{
			"buffer":0,
			"byteLength":614472,
			"byteOffset":921708,
			"target":34962
		},
		{
			"buffer":0,
			"byteLength":921708,
			"byteOffset":1536180,
			"target":34962
		},
		{
			"buffer":0,
			"byteLength":1094592,
			"byteOffset":2457888,
			"target":34963
		}
	],
	"buffers":[
		{
			"byteLength":3552480,
			"uri":"stanfordDragon.bin"
		}
	]
}
