{
	"asset":{
		"generator":"Khronos glTF Blender I/O v3.5.30",
		"version":"2.0"
	},
	"scene":0,
	"scenes":[
		{
			"name":"Scene",
			"nodes":[
				3
			]
		}
	],
	"nodes":[
		{
			"name":"Bone.001",
			"rotation":[
				-0.02483726292848587,
				-0.032095715403556824,
				0.004794932436197996,
				0.9991646409034729
			],
			"scale":[
				0.9999999403953552,
				1.0000001192092896,
				1
			],
			"translation":[
				0,
				2.2845535278320312,
				0
			]
		},
		{
			"children":[
				0
			],
			"name":"Bone"
		},
		{
			"mesh":0,
			"name":"Cube",
			"skin":0
		},
		{
			"children":[
				2,
				1
			],
			"name":"Armature"
		}
	],
	"animations":[
		{
			"channels":[
				{
					"sampler":0,
					"target":{
						"node":1,
						"path":"translation"
					}
				},
				{
					"sampler":1,
					"target":{
						"node":1,
						"path":"rotation"
					}
				},
				{
					"sampler":2,
					"target":{
						"node":1,
						"path":"scale"
					}
				},
				{
					"sampler":3,
					"target":{
						"node":0,
						"path":"translation"
					}
				},
				{
					"sampler":4,
					"target":{
						"node":0,
						"path":"rotation"
					}
				},
				{
					"sampler":5,
					"target":{
						"node":0,
						"path":"scale"
					}
				}
			],
			"name":"Action",
			"samplers":[
				{
					"input":7,
					"interpolation":"LINEAR",
					"output":8
				},
				{
					"input":7,
					"interpolation":"LINEAR",
					"output":9
				},
				{
					"input":7,
					"interpolation":"LINEAR",
					"output":10
				},
				{
					"input":7,
					"interpolation":"LINEAR",
					"output":11
				},
				{
					"input":7,
					"interpolation":"LINEAR",
					"output":12
				},
				{
					"input":7,
					"interpolation":"LINEAR",
					"output":13
				}
			]
		}
	],
	"materials":[
		{
			"doubleSided":true,
			"name":"Material",
			"pbrMetallicRoughness":{
				"baseColorFactor":[
					0.07892966270446777,
					0.8000000715255737,
					0.4046587646007538,
					1
				],
				"metallicFactor":0,
				"roughnessFactor":0.5
			}
		}
	],
	"meshes":[
		{
			"name":"Cube",
			"primitives":[
				{
					"attributes":{
						"POSITION":0,
						"TEXCOORD_0":1,
						"NORMAL":2,
						"JOINTS_0":3,
						"WEIGHTS_0":4
					},
					"indices":5,
					"material":0
				}
			]
		}
	],
	"skins":[
		{
			"inverseBindMatrices":6,
			"joints":[
				1,
				0
			],
			"name":"Armature"
		}
	],
	"accessors":[
		{
			"bufferView":0,
			"componentType":5126,
			"count":72,
			"max":[
				1,
				5.004461288452148,
				1
			],
			"min":[
				-1,
				-0.5,
				-1
			],
			"type":"VEC3"
		},
		{
			"bufferView":1,
			"componentType":5126,
			"count":72,
			"type":"VEC2"
		},
		{
			"bufferView":2,
			"componentType":5126,
			"count":72,
			"type":"VEC3"
		},
		{
			"bufferView":3,
			"componentType":5121,
			"count":72,
			"type":"VEC4"
		},
		{
			"bufferView":4,
			"componentType":5126,
			"count":72,
			"type":"VEC4"
		},
		{
			"bufferView":5,
			"componentType":5123,
			"count":180,
			"type":"SCALAR"
		},
		{
			"bufferView":6,
			"componentType":5126,
			"count":2,
			"type":"MAT4"
		},
		{
			"bufferView":7,
			"componentType":5126,
			"count":20,
			"max":[
				0.8333333333333334
			],
			"min":[
				0.041666666666666664
			],
			"type":"SCALAR"
		},
		{
			"bufferView":8,
			"componentType":5126,
			"count":20,
			"type":"VEC3"
		},
		{
			"bufferView":9,
			"componentType":5126,
			"count":20,
			"type":"VEC4"
		},
		{
			"bufferView":10,
			"componentType":5126,
			"count":20,
			"type":"VEC3"
		},
		{
			"bufferView":11,
			"componentType":5126,
			"count":20,
			"type":"VEC3"
		},
		{
			"bufferView":12,
			"componentType":5126,
			"count":20,
			"type":"VEC4"
		},
		{
			"bufferView":13,
			"componentType":5126,
			"count":20,
			"type":"VEC3"
		}
	],
	"bufferViews":[
		{
			"buffer":0,
			"byteLength":864,
			"byteOffset":0,
			"target":34962
		},
		{
			"buffer":0,
			"byteLength":576,
			"byteOffset":864,
			"target":34962
		},
		{
			"buffer":0,
			"byteLength":864,
			"byteOffset":1440,
			"target":34962
		},
		{
			"buffer":0,
			"byteLength":288,
			"byteOffset":2304,
			"target":34962
		},
		{
			"buffer":0,
			"byteLength":1152,
			"byteOffset":2592,
			"target":34962
		},
		{
			"buffer":0,
			"byteLength":360,
			"byteOffset":3744,
			"target":34963
		},
		{
			"buffer":0,
			"byteLength":128,
			"byteOffset":4104
		},
		{
			"buffer":0,
			"byteLength":80,
			"byteOffset":4232
		},
		{
			"buffer":0,
			"byteLength":240,
			"byteOffset":4312
		},
		{
			"buffer":0,
			"byteLength":320,
			"byteOffset":4552
		},
		{
			"buffer":0,
			"byteLength":240,
			"byteOffset":4872
		},
		{
			"buffer":0,
			"byteLength":240,
			"byteOffset":5112
		},
		{
			"buffer":0,
			"byteLength":320,
			"byteOffset":5352
		},
		{
			"buffer":0,
			"byteLength":240,
			"byteOffset":5672
		}
	],
	"buffers":[
		{
			"byteLength":5912,
			"uri":"BendyBox.bin"
		}
	]
}
